<svg id="visual" viewBox="0 0 900 600" width="900" height="600" xmlns="http://www.w3.org/2000/svg" xmlns:xlink="http://www.w3.org/1999/xlink" version="1.1"><rect x="0" y="0" width="900" height="600" fill="#FF0066"></rect><g transform="translate(474.88996130465745 310.33909359132736)"><path d="M95.8 -131.2C127.3 -87.7 158.2 -60.5 178.4 -20.5C198.5 19.6 207.9 72.6 186.5 105.8C165.1 139.1 112.8 152.7 59.5 178.8C6.2 204.9 -48.2 243.4 -85.7 231.5C-123.3 219.6 -143.9 157.3 -174.7 101.9C-205.6 46.4 -246.6 -2.1 -248.4 -52.8C-250.2 -103.5 -212.8 -156.3 -164.9 -196.9C-117 -237.4 -58.5 -265.7 -13.2 -250C32.1 -234.3 64.3 -174.6 95.8 -131.2" fill="#E0785B"></path></g></svg>