<svg id="visual" viewBox="0 0 900 600" width="900" height="600" xmlns="http://www.w3.org/2000/svg" xmlns:xlink="http://www.w3.org/1999/xlink" version="1.1"><rect x="0" y="0" width="900" height="600" fill="#FF0066"></rect><g transform="translate(456.72263160628495 311.7332435017675)"><path d="M158.4 -195.8C198.9 -154.7 221.1 -98.8 234.9 -38.7C248.8 21.4 254.3 85.7 229.1 135C203.9 184.3 147.9 218.5 91.5 229.7C35 240.9 -22 229 -73.9 207.9C-125.7 186.9 -172.4 156.7 -208.3 111.9C-244.2 67 -269.3 7.6 -256.9 -42.3C-244.5 -92.1 -194.6 -132.2 -145.5 -171.7C-96.4 -211.2 -48.2 -250.1 5.4 -256.5C58.9 -262.9 117.8 -236.8 158.4 -195.8" fill="#84CBC8"></path></g></svg>